<svg width="276" height="115" viewBox="0 0 276 115" fill="none" xmlns="http://www.w3.org/2000/svg">
<path d="M41.3346 16.4522V54.5526C41.3346 54.6974 41.2771 54.8363 41.1748 54.9387C41.0724 55.0411 40.9336 55.0987 40.7889 55.0987H25.121C25.0926 55.1001 25.0646 55.0924 25.0408 55.0769C25.017 55.0614 24.9987 55.0388 24.9885 55.0123C24.9783 54.9858 24.9767 54.9568 24.984 54.9293C24.9913 54.9018 25.007 54.8774 25.029 54.8594L27.7272 52.4421C31.3399 49.2593 33.7406 44.9238 34.5217 40.1714L34.6137 39.5272C34.7928 38.2552 34.8359 36.9677 34.7425 35.6865C34.695 33.8371 34.0963 32.0441 33.0232 30.5375C31.9501 29.0309 30.4516 27.8795 28.7198 27.231C26.9881 26.5825 25.1022 26.4665 23.3041 26.8978C21.506 27.3292 19.8777 28.2883 18.6282 29.652C17.3787 31.0156 16.565 32.7218 16.2914 34.5514C16.0179 36.381 16.297 38.2507 17.0929 39.9206C17.8889 41.5904 19.1653 42.9842 20.7586 43.9231C22.3518 44.862 24.1891 45.3032 26.0347 45.1901C26.1086 45.1851 26.1827 45.1953 26.2525 45.2201C26.3223 45.245 26.3862 45.284 26.4403 45.3346C26.4943 45.3853 26.5374 45.4465 26.5668 45.5145C26.5962 45.5826 26.6113 45.6559 26.6111 45.73C26.5682 49.9634 22.9318 53.755 21.1841 54.7244C20.9326 54.8999 20.6421 55.0115 20.3378 55.0496C20.0251 55.0496 19.7246 55.0496 19.3751 55.0496C8.87052 55.1048 0.5 46.2024 0.5 35.1834C0.5 24.1644 8.87052 15.1209 19.3751 15.1209C25.7219 15.1209 29.156 17.6302 31.2348 21.4648C31.2478 21.4933 31.2702 21.5163 31.2983 21.5301C31.3264 21.5438 31.3584 21.5474 31.3888 21.5401C31.4192 21.5329 31.4462 21.5153 31.4651 21.4904C31.484 21.4654 31.4936 21.4347 31.4924 21.4035V16.4522C31.4924 16.3074 31.5499 16.1685 31.6522 16.0661C31.7546 15.9637 31.8934 15.9062 32.0381 15.9062H40.7889C40.9336 15.9062 41.0724 15.9637 41.1748 16.0661C41.2771 16.1685 41.3346 16.3074 41.3346 16.4522Z" fill="#8B64FF"/>
<path d="M46.602 15.9307H55.1871C55.3498 15.9307 55.5058 15.9954 55.6208 16.1104C55.7358 16.2255 55.8004 16.3816 55.8004 16.5443V19.9923C55.8007 20.1119 55.839 20.2283 55.9098 20.3246C55.9805 20.421 56.08 20.4924 56.1939 20.5286C56.3078 20.5648 56.4302 20.5638 56.5436 20.5259C56.6569 20.4879 56.7552 20.415 56.8245 20.3175C58.9646 17.1394 62.3435 15.1209 67.9913 15.1209C78.4958 15.1209 86.8663 24.1582 86.8663 35.1834C86.8663 46.2086 78.502 55.1048 67.9974 55.1048C62.4416 55.1048 59.1118 53.1906 56.9594 50.1965C56.8931 50.0958 56.796 50.0193 56.6826 49.9784C56.5692 49.9374 56.4456 49.9344 56.3303 49.9696C56.215 50.0048 56.1142 50.0765 56.043 50.1738C55.9718 50.2711 55.934 50.3889 55.9353 50.5094V68.3019C55.9337 68.4505 55.8735 68.5925 55.7679 68.6971C55.6623 68.8016 55.5197 68.8602 55.3711 68.8602H46.602C46.4534 68.8602 46.3108 68.8016 46.2052 68.6971C46.0996 68.5925 46.0394 68.4505 46.0378 68.3019V16.4952C46.0378 16.3455 46.0973 16.2019 46.2031 16.0961C46.3089 15.9902 46.4524 15.9307 46.602 15.9307ZM66.3846 46.1288C72.7008 46.1288 76.9566 40.9138 76.9566 35.0852C76.9566 29.134 72.7008 24.0416 66.3846 24.0416C59.8477 24.0846 55.69 29.2321 55.69 35.1834C55.69 41.1347 59.8477 46.1288 66.3846 46.1288Z" fill="#8B64FF"/>
<path d="M88.4123 35.1089C88.4123 24.0653 96.9361 15.0464 108.759 15.0464C120.582 15.0464 129.106 24.0837 129.106 35.1089C129.106 46.1341 120.582 55.1039 108.759 55.1039C96.9361 55.1039 88.4123 46.1279 88.4123 35.1089ZM108.759 46.0543C115.075 46.0543 119.184 41.0602 119.184 35.1089C119.184 29.1576 115.069 24.0653 108.759 24.0653C102.449 24.0653 98.3343 29.1392 98.3343 35.1089C98.3343 41.0786 102.443 46.0543 108.759 46.0543Z" fill="#8B64FF"/>
<path d="M128.621 48.0181L134.465 42.6865C134.577 42.5882 134.722 42.5376 134.87 42.5456C135.018 42.5537 135.157 42.6197 135.257 42.7294C137.936 45.6069 140.776 47.0241 143.842 47.0241C147.214 47.0241 149.128 45.3369 149.128 43.0546C149.128 41.0729 148.171 39.9869 142.149 38.5758C131.939 36.1523 130.4 31.5202 130.4 26.6733C130.4 19.9857 135.686 15.0161 144.645 15.0161C150.63 15.0161 154.677 16.4702 158.467 21.1821C158.514 21.2408 158.548 21.308 158.568 21.38C158.588 21.452 158.594 21.5273 158.585 21.6015C158.576 21.6757 158.552 21.7473 158.515 21.8122C158.478 21.8772 158.428 21.9341 158.369 21.9797L152.102 26.7776C152.04 26.8237 151.97 26.8568 151.895 26.8748C151.82 26.8927 151.742 26.8952 151.667 26.882C151.591 26.8687 151.519 26.8401 151.454 26.7979C151.39 26.7557 151.335 26.7007 151.292 26.6364C149.508 24.0657 147.288 23.0289 144.866 23.0289C142.149 23.0289 140.095 24.0596 140.095 26.4094C140.095 27.7285 140.708 28.9065 145.234 30.0906C156.327 32.9558 158.896 37.0665 158.896 42.803C158.896 49.8034 152.507 55.1044 144.062 55.1044C137.801 55.1044 132.718 53.0368 128.597 48.8341C128.543 48.7797 128.501 48.7151 128.474 48.6441C128.446 48.573 128.432 48.4971 128.435 48.4208C128.437 48.3445 128.455 48.2695 128.487 48.2003C128.519 48.1311 128.565 48.0691 128.621 48.0181Z" fill="#8B64FF"/>
<path d="M165.213 42.3117V24.9426C165.213 24.8685 165.198 24.7951 165.17 24.7266C165.141 24.6581 165.1 24.5959 165.047 24.5435C164.995 24.4911 164.933 24.4495 164.864 24.4211C164.796 24.3928 164.722 24.3782 164.648 24.3782H160.411C160.262 24.3782 160.12 24.3195 160.014 24.215C159.909 24.1105 159.848 23.9685 159.847 23.8198V16.4943C159.847 16.3446 159.906 16.201 160.012 16.0951C160.118 15.9893 160.261 15.9298 160.411 15.9298H164.648C164.797 15.9298 164.939 15.8712 165.045 15.7667C165.151 15.6621 165.211 15.5201 165.213 15.3715V8.72081C165.212 8.58182 165.263 8.44758 165.356 8.34433C165.449 8.24107 165.577 8.17624 165.715 8.16249L174.503 7.24833C174.58 7.24155 174.659 7.25092 174.732 7.27585C174.806 7.30078 174.874 7.34072 174.932 7.39317C174.989 7.44562 175.035 7.50943 175.067 7.58059C175.099 7.65175 175.116 7.72872 175.116 7.80664V15.3715C175.118 15.5201 175.178 15.6621 175.283 15.7667C175.389 15.8712 175.532 15.9298 175.68 15.9298H182.628C182.778 15.9298 182.921 15.9893 183.027 16.0951C183.133 16.201 183.192 16.3446 183.192 16.4943V23.8137C183.191 23.9623 183.131 24.1043 183.025 24.2089C182.919 24.3134 182.777 24.372 182.628 24.372H175.686C175.537 24.372 175.393 24.4315 175.287 24.5374C175.182 24.6432 175.122 24.7868 175.122 24.9365V41.7964C175.122 44.2505 176.3 45.3242 178.188 45.3242H181.745C181.893 45.3242 182.035 45.383 182.14 45.4877C182.244 45.5924 182.303 45.7344 182.303 45.8825V53.5762C182.303 53.7248 182.245 53.8675 182.14 53.9732C182.036 54.0788 181.894 54.139 181.745 54.1406H176.87C169.321 54.1406 165.213 50.6128 165.213 42.3117Z" fill="#8B64FF"/>
<path d="M187.067 15.9308H195.567C195.716 15.9308 195.86 15.9903 195.966 16.0961C196.071 16.202 196.131 16.3455 196.131 16.4952V20.0415C196.133 20.166 196.176 20.2863 196.255 20.3832C196.333 20.4802 196.441 20.5482 196.562 20.5764C196.684 20.6046 196.811 20.5914 196.924 20.539C197.037 20.4865 197.129 20.3978 197.185 20.2869C198.994 16.7775 202.38 14.8878 207.408 15.0289C207.554 15.0337 207.693 15.0953 207.795 15.2006C207.897 15.3059 207.954 15.4468 207.954 15.5934V23.8147C207.952 23.9633 207.892 24.1053 207.786 24.2099C207.681 24.3144 207.538 24.373 207.39 24.373H206.543C200.816 24.373 196.407 28.1953 196.407 34.5883V53.5772C196.407 53.7258 196.348 53.8685 196.244 53.9741C196.139 54.0798 195.997 54.14 195.849 54.1416H187.067C186.919 54.14 186.777 54.0798 186.672 53.9741C186.568 53.8685 186.509 53.7258 186.509 53.5772V16.4952C186.509 16.3466 186.568 16.204 186.672 16.0983C186.777 15.9926 186.919 15.9324 187.067 15.9308Z" fill="#8B64FF"/>
<path d="M228.417 0.5H231.256C231.406 0.5 231.549 0.559469 231.655 0.665324C231.761 0.771178 231.82 0.914749 231.82 1.06445V8.39003C231.818 8.53866 231.758 8.68066 231.653 8.7852C231.547 8.88973 231.404 8.94835 231.256 8.94834H229.232C226.295 8.94834 224.897 10.4944 224.897 13.5069V15.3475C224.898 15.4961 224.959 15.6381 225.064 15.7427C225.17 15.8472 225.312 15.9058 225.461 15.9058H232.121C232.195 15.9058 232.268 15.9204 232.336 15.9488C232.405 15.9771 232.467 16.0187 232.519 16.0711C232.572 16.1235 232.613 16.1858 232.642 16.2542C232.67 16.3227 232.685 16.3961 232.685 16.4703V23.8142C232.683 23.9629 232.623 24.1049 232.517 24.2094C232.412 24.3139 232.269 24.3726 232.121 24.3726H225.479C225.33 24.3726 225.186 24.432 225.08 24.5379C224.975 24.6437 224.915 24.7873 224.915 24.937V53.5767C224.915 53.7254 224.857 53.868 224.752 53.9737C224.648 54.0794 224.506 54.1395 224.357 54.1412H215.563C215.414 54.1412 215.27 54.0817 215.165 53.9758C215.059 53.87 214.999 53.7264 214.999 53.5767V24.9431C214.999 24.7945 214.941 24.6518 214.836 24.5462C214.732 24.4405 214.59 24.3803 214.441 24.3787H210.222C210.074 24.3787 209.932 24.3199 209.828 24.2152C209.723 24.1105 209.664 23.9684 209.664 23.8204V16.4948C209.664 16.3462 209.723 16.2035 209.827 16.0978C209.932 15.9921 210.074 15.932 210.222 15.9303H214.466C214.539 15.9303 214.612 15.9159 214.679 15.8878C214.747 15.8598 214.809 15.8187 214.86 15.7668C214.912 15.715 214.953 15.6534 214.981 15.5857C215.009 15.518 215.024 15.4453 215.024 15.372V13.918C215.025 10.363 216.436 6.9538 218.947 4.43832C221.458 1.92285 224.864 0.506499 228.417 0.5Z" fill="#8B64FF"/>
<path d="M235.365 68.2641L236.665 59.8833C236.675 59.807 236.7 59.7335 236.739 59.6672C236.778 59.601 236.83 59.5434 236.892 59.498C236.954 59.4527 237.024 59.4204 237.099 59.4033C237.174 59.3862 237.252 59.3846 237.327 59.3986C238.606 59.6656 239.909 59.7931 241.215 59.779C245.035 59.779 247.458 57.3248 248.574 53.9749L249.028 52.5515C249.071 52.4284 249.071 52.2943 249.028 52.1712L234.31 16.6906C234.275 16.6049 234.261 16.5118 234.271 16.4196C234.28 16.3274 234.312 16.2389 234.363 16.1619C234.415 16.0849 234.484 16.0217 234.566 15.978C234.648 15.9344 234.739 15.9115 234.831 15.9114H245.557C245.674 15.9113 245.789 15.948 245.884 16.0162C245.98 16.0843 246.052 16.1807 246.09 16.2918L253.381 37.7654C253.774 38.8636 254.142 40.1152 254.455 41.3668C254.484 41.4889 254.553 41.5975 254.652 41.6752C254.75 41.7529 254.872 41.7952 254.997 41.7952C255.123 41.7952 255.244 41.7529 255.343 41.6752C255.441 41.5975 255.511 41.4889 255.54 41.3668C255.834 40.1483 256.192 38.9462 256.613 37.7654L263.898 16.3224C263.937 16.2119 264.01 16.116 264.105 16.048C264.2 15.9799 264.315 15.9429 264.432 15.9421H274.936C275.029 15.9421 275.12 15.965 275.202 16.0087C275.283 16.0524 275.353 16.1155 275.405 16.1926C275.456 16.2696 275.488 16.3581 275.497 16.4503C275.506 16.5425 275.493 16.6355 275.458 16.7212L258.9 56.6009C255.601 64.3068 250.837 69.4973 241.877 69.4973C239.817 69.5263 237.759 69.3205 235.745 68.8838C235.619 68.8419 235.512 68.7567 235.442 68.6434C235.372 68.53 235.345 68.3957 235.365 68.2641Z" fill="#8B64FF"/>
<path d="M14.3823 91.388C14.3823 90.5773 14.1156 89.9267 13.5823 89.436C13.0489 88.924 12.3449 88.668 11.4703 88.668L11.9183 89.532C11.8543 88.4653 12.0249 87.5587 12.4303 86.812C12.8356 86.0653 13.3369 85.4147 13.9343 84.86L12.8143 83.74C11.4063 84.8493 10.3823 86.0227 9.74225 87.26C9.10225 88.476 8.78225 89.6067 8.78225 90.652C8.78225 91.6973 9.02758 92.54 9.51825 93.18C10.0303 93.82 10.7236 94.14 11.5983 94.14C12.4303 94.14 13.1023 93.884 13.6143 93.372C14.1263 92.8387 14.3823 92.1773 14.3823 91.388ZM21.6143 91.388C21.6143 90.5773 21.3476 89.9267 20.8143 89.436C20.2809 88.924 19.5769 88.668 18.7023 88.668L19.1503 89.532C19.0863 88.4653 19.2569 87.5587 19.6623 86.812C20.0676 86.0653 20.5689 85.4147 21.1663 84.86L20.0463 83.74C18.6383 84.8493 17.6143 86.0227 16.9743 87.26C16.3343 88.476 16.0143 89.6067 16.0143 90.652C16.0143 91.6973 16.2596 92.54 16.7503 93.18C17.2623 93.82 17.9556 94.14 18.8303 94.14C19.6623 94.14 20.3343 93.884 20.8463 93.372C21.3583 92.8387 21.6143 92.1773 21.6143 91.388ZM31.9645 83.356C32.9885 83.356 33.8418 83.42 34.5245 83.548C35.2285 83.676 35.8685 83.8573 36.4445 84.092V87.996H34.2045C34.0552 87.3133 33.8418 86.748 33.5645 86.3C33.2872 85.852 32.8498 85.628 32.2525 85.628C31.7192 85.628 31.2712 85.916 30.9085 86.492C30.5672 87.0467 30.3965 87.7933 30.3965 88.732V101.596C30.3965 102.236 30.5778 102.727 30.9405 103.068C31.3245 103.388 31.8365 103.612 32.4765 103.74V105.5H23.8685V103.74C24.4872 103.591 24.9352 103.367 25.2125 103.068C25.4898 102.769 25.6285 102.311 25.6285 101.692V89.564C25.6285 88.1773 25.9058 87.0253 26.4605 86.108C27.0152 85.1907 27.7618 84.508 28.7005 84.06C29.6605 83.5907 30.7485 83.356 31.9645 83.356ZM28.2525 93.18V90.78H34.0125V93.18H28.2525ZM27.9645 89.852V93.18H23.2605V91.612L27.9645 89.852ZM36.5473 96.188C36.5473 95.5053 36.3979 95.036 36.0993 94.78C35.8219 94.524 35.3846 94.3213 34.7873 94.172V92.412L39.1073 90.78H41.3153V99.004C41.3153 100.241 41.5179 101.116 41.9233 101.628C42.3499 102.14 43.1073 102.396 44.1953 102.396C44.6219 102.396 45.0379 102.364 45.4433 102.3C45.8699 102.236 46.2753 102.14 46.6593 102.012L47.2353 102.94C46.3606 103.708 45.4326 104.369 44.4513 104.924C43.4913 105.479 42.4459 105.756 41.3153 105.756C39.8646 105.756 38.7019 105.244 37.8273 104.22C36.9739 103.196 36.5473 101.735 36.5473 99.836V96.188ZM46.0513 103.004V96.124C46.0513 95.5053 45.8913 95.0573 45.5713 94.78C45.2726 94.4813 44.8459 94.2787 44.2913 94.172V92.412L48.6113 90.78H50.8193V100.444C50.8193 101.084 50.9579 101.564 51.2353 101.884C51.5339 102.183 51.9819 102.396 52.5793 102.524V104.284L48.7713 105.724H47.8113L46.0513 103.004ZM65.125 90.556V95.676H64.037L59.557 93.852V93.5C59.941 93.0733 60.3997 92.636 60.933 92.188C61.4663 91.74 62.085 91.356 62.789 91.036C63.493 90.716 64.2717 90.556 65.125 90.556ZM62.373 105.5H54.085V103.74C54.7037 103.591 55.1517 103.367 55.429 103.068C55.7063 102.769 55.845 102.311 55.845 101.692V96.188C55.845 95.5693 55.7063 95.1107 55.429 94.812C55.1517 94.5133 54.7037 94.3 54.085 94.172V92.412L58.405 90.78H60.453V94.108H60.613V101.628C60.613 102.311 60.773 102.812 61.093 103.132C61.413 103.431 61.8397 103.633 62.373 103.74V105.5ZM76.6575 93.148H69.3615V90.78H76.6575V93.148ZM76.8495 102.62L77.3935 104.252C76.7962 104.636 76.0495 104.977 75.1535 105.276C74.2788 105.575 73.4042 105.724 72.5295 105.724C71.1002 105.724 69.9588 105.297 69.1055 104.444C68.2522 103.569 67.8255 102.449 67.8255 101.084V93.148H66.5135V91.26C67.4308 90.94 68.2308 90.46 68.9135 89.82C69.6175 89.1587 70.0975 88.3693 70.3535 87.452H72.5935V100.476C72.5935 101.201 72.8175 101.788 73.2655 102.236C73.7348 102.684 74.3322 102.908 75.0575 102.908C75.3348 102.908 75.6228 102.887 75.9215 102.844C76.2202 102.78 76.5295 102.705 76.8495 102.62ZM86.7108 105.5H78.5188V103.74C79.1374 103.591 79.5854 103.367 79.8628 103.068C80.1401 102.769 80.2788 102.311 80.2788 101.692V89.052C80.2788 88.4333 80.1401 87.9747 79.8628 87.676C79.5854 87.3773 79.1374 87.164 78.5188 87.036V85.276L82.9988 83.548H85.0468V101.628C85.0468 102.311 85.1854 102.812 85.4628 103.132C85.7614 103.431 86.1774 103.633 86.7108 103.74V105.5ZM96.6628 105.5H88.4708V103.74C89.0254 103.633 89.4414 103.431 89.7188 103.132C89.9961 102.812 90.1348 102.311 90.1348 101.628V97.276C90.1348 96.0173 89.9214 95.1427 89.4948 94.652C89.0681 94.14 88.2894 93.884 87.1588 93.884C86.7961 93.884 86.4014 93.916 85.9748 93.98C85.5694 94.0227 85.1641 94.1187 84.7588 94.268L84.2148 93.308C85.0894 92.5187 86.0068 91.8573 86.9668 91.324C87.9481 90.7907 88.9934 90.524 90.1028 90.524C91.5748 90.524 92.7374 91.036 93.5908 92.06C94.4654 93.084 94.9028 94.5453 94.9028 96.444V101.692C94.9028 102.311 95.0414 102.769 95.3188 103.068C95.6174 103.367 96.0654 103.591 96.6628 103.74V105.5ZM110.95 102.044L111.622 103.868C111.024 104.252 110.203 104.657 109.158 105.084C108.134 105.511 106.939 105.724 105.574 105.724C104.123 105.724 102.811 105.425 101.638 104.828C100.486 104.231 99.5684 103.388 98.8858 102.3C98.2031 101.212 97.8618 99.9213 97.8618 98.428C97.8618 96.9347 98.1924 95.6013 98.8538 94.428C99.5364 93.2333 100.464 92.2947 101.638 91.612C102.811 90.908 104.144 90.556 105.638 90.556C107.088 90.556 108.294 90.908 109.254 91.612C110.235 92.2947 110.971 93.2227 111.462 94.396C111.952 95.5693 112.198 96.8813 112.198 98.332H102.534V96.284L107.75 95.996C107.75 95.4413 107.664 94.94 107.494 94.492C107.344 94.044 107.099 93.692 106.758 93.436C106.438 93.1587 106.032 93.02 105.542 93.02C104.902 93.02 104.39 93.2547 104.006 93.724C103.622 94.1933 103.344 94.7693 103.174 95.452C103.024 96.1347 102.95 96.796 102.95 97.436C102.95 98.9933 103.344 100.273 104.134 101.276C104.923 102.257 105.979 102.748 107.302 102.748C107.835 102.748 108.443 102.673 109.126 102.524C109.808 102.375 110.416 102.215 110.95 102.044ZM124.906 90.556V95.676H123.818L119.338 93.852V93.5C119.722 93.0733 120.181 92.636 120.714 92.188C121.248 91.74 121.866 91.356 122.57 91.036C123.274 90.716 124.053 90.556 124.906 90.556ZM122.154 105.5H113.866V103.74C114.485 103.591 114.933 103.367 115.21 103.068C115.488 102.769 115.626 102.311 115.626 101.692V96.188C115.626 95.5693 115.488 95.1107 115.21 94.812C114.933 94.5133 114.485 94.3 113.866 94.172V92.412L118.186 90.78H120.234V94.108H120.394V101.628C120.394 102.311 120.554 102.812 120.874 103.132C121.194 103.431 121.621 103.633 122.154 103.74V105.5ZM143.626 93.148H136.33V90.78H143.626V93.148ZM143.818 102.62L144.362 104.252C143.765 104.636 143.018 104.977 142.122 105.276C141.248 105.575 140.373 105.724 139.498 105.724C138.069 105.724 136.928 105.297 136.074 104.444C135.221 103.569 134.794 102.449 134.794 101.084V93.148H133.482V91.26C134.4 90.94 135.2 90.46 135.882 89.82C136.586 89.1587 137.066 88.3693 137.322 87.452H139.562V100.476C139.562 101.201 139.786 101.788 140.234 102.236C140.704 102.684 141.301 102.908 142.026 102.908C142.304 102.908 142.592 102.887 142.89 102.844C143.189 102.78 143.498 102.705 143.818 102.62ZM152.759 105.724C151.266 105.724 149.943 105.425 148.791 104.828C147.639 104.209 146.743 103.345 146.103 102.236C145.463 101.127 145.143 99.836 145.143 98.364C145.143 96.7427 145.506 95.356 146.231 94.204C146.956 93.0307 147.916 92.1347 149.111 91.516C150.306 90.876 151.596 90.556 152.983 90.556C154.327 90.556 155.596 90.8547 156.791 91.452C157.986 92.0493 158.946 92.9133 159.671 94.044C160.418 95.1533 160.791 96.5187 160.791 98.14C160.791 99.6547 160.439 100.988 159.735 102.14C159.052 103.271 158.103 104.156 156.887 104.796C155.692 105.415 154.316 105.724 152.759 105.724ZM153.015 103.324C153.527 103.324 153.964 103.143 154.327 102.78C154.711 102.396 155.01 101.831 155.223 101.084C155.436 100.316 155.543 99.3773 155.543 98.268C155.543 97.2227 155.447 96.3053 155.255 95.516C155.063 94.7267 154.775 94.108 154.391 93.66C154.007 93.212 153.516 92.988 152.919 92.988C152.407 92.988 151.948 93.18 151.543 93.564C151.159 93.948 150.86 94.5133 150.647 95.26C150.434 95.9853 150.327 96.9027 150.327 98.012C150.327 99.0787 150.434 100.017 150.647 100.828C150.86 101.617 151.159 102.236 151.543 102.684C151.948 103.111 152.439 103.324 153.015 103.324ZM171.131 95.388C171.131 94.62 170.981 93.948 170.683 93.372C170.405 92.7747 169.925 92.476 169.243 92.476C168.773 92.476 168.411 92.6147 168.155 92.892C167.92 93.1693 167.749 93.5213 167.643 93.948C167.557 94.3533 167.515 94.7693 167.515 95.196C167.515 95.964 167.653 96.6467 167.931 97.244C168.208 97.82 168.688 98.108 169.371 98.108C169.861 98.108 170.235 97.9693 170.491 97.692C170.747 97.4147 170.917 97.0733 171.003 96.668C171.088 96.2413 171.131 95.8147 171.131 95.388ZM167.035 99.42C166.885 99.5907 166.779 99.7827 166.715 99.996C166.651 100.209 166.619 100.433 166.619 100.668C166.619 101.073 166.811 101.372 167.195 101.564C167.6 101.756 168.123 101.884 168.763 101.948C169.403 101.991 170.107 102.033 170.875 102.076C171.643 102.119 172.411 102.193 173.179 102.3C173.947 102.385 174.651 102.567 175.291 102.844C175.931 103.1 176.443 103.495 176.827 104.028C177.232 104.54 177.435 105.233 177.435 106.108C177.435 107.303 177.04 108.348 176.251 109.244C175.483 110.14 174.448 110.833 173.147 111.324C171.845 111.836 170.405 112.092 168.827 112.092C167.248 112.092 165.947 111.932 164.923 111.612C163.899 111.292 163.131 110.844 162.618 110.268C162.128 109.692 161.883 109.041 161.883 108.316C161.883 107.633 162.107 107.036 162.555 106.524C163.003 106.033 163.557 105.596 164.219 105.212C164.88 104.828 165.541 104.497 166.203 104.22L166.427 104.444C166.128 104.913 165.893 105.329 165.723 105.692C165.552 106.076 165.467 106.492 165.467 106.94C165.467 107.772 165.776 108.455 166.395 108.988C167.035 109.543 168.08 109.82 169.531 109.82C170.277 109.82 170.928 109.735 171.483 109.564C172.059 109.415 172.507 109.169 172.827 108.828C173.147 108.487 173.307 108.049 173.307 107.516C173.307 106.919 173.061 106.492 172.571 106.236C172.08 106.001 171.451 105.841 170.683 105.756C169.915 105.692 169.104 105.639 168.251 105.596C167.397 105.575 166.587 105.5 165.819 105.372C165.051 105.223 164.421 104.956 163.931 104.572C163.44 104.188 163.195 103.601 163.195 102.812C163.195 101.809 163.536 101.031 164.219 100.476C164.923 99.9213 165.765 99.4413 166.747 99.036L167.035 99.42ZM169.339 100.092C167.397 100.092 165.861 99.676 164.731 98.844C163.6 98.012 163.045 96.892 163.067 95.484C163.088 94.524 163.355 93.6813 163.867 92.956C164.4 92.2093 165.115 91.6227 166.011 91.196C166.928 90.7693 167.973 90.556 169.147 90.556C170.597 90.556 171.813 90.7587 172.795 91.164C173.776 91.5693 174.512 92.124 175.003 92.828C175.515 93.5107 175.771 94.3 175.771 95.196C175.771 96.0493 175.504 96.8493 174.971 97.596C174.459 98.3427 173.723 98.9507 172.763 99.42C171.803 99.868 170.661 100.092 169.339 100.092ZM177.819 90.044V93.116H177.371L174.203 92.796L173.115 92.156C173.52 91.9 173.989 91.612 174.523 91.292C175.077 90.972 175.643 90.684 176.219 90.428C176.795 90.172 177.328 90.044 177.819 90.044ZM191.856 102.044L192.528 103.868C191.931 104.252 191.109 104.657 190.064 105.084C189.04 105.511 187.845 105.724 186.48 105.724C185.029 105.724 183.717 105.425 182.544 104.828C181.392 104.231 180.475 103.388 179.792 102.3C179.109 101.212 178.768 99.9213 178.768 98.428C178.768 96.9347 179.099 95.6013 179.76 94.428C180.443 93.2333 181.371 92.2947 182.544 91.612C183.717 90.908 185.051 90.556 186.544 90.556C187.995 90.556 189.2 90.908 190.16 91.612C191.141 92.2947 191.877 93.2227 192.368 94.396C192.859 95.5693 193.104 96.8813 193.104 98.332H183.44V96.284L188.656 95.996C188.656 95.4413 188.571 94.94 188.4 94.492C188.251 94.044 188.005 93.692 187.664 93.436C187.344 93.1587 186.939 93.02 186.448 93.02C185.808 93.02 185.296 93.2547 184.912 93.724C184.528 94.1933 184.251 94.7693 184.08 95.452C183.931 96.1347 183.856 96.796 183.856 97.436C183.856 98.9933 184.251 100.273 185.04 101.276C185.829 102.257 186.885 102.748 188.208 102.748C188.741 102.748 189.349 102.673 190.032 102.524C190.715 102.375 191.323 102.215 191.856 102.044ZM204.533 93.148H197.237V90.78H204.533V93.148ZM204.725 102.62L205.269 104.252C204.671 104.636 203.925 104.977 203.029 105.276C202.154 105.575 201.279 105.724 200.405 105.724C198.975 105.724 197.834 105.297 196.981 104.444C196.127 103.569 195.701 102.449 195.701 101.084V93.148H194.389V91.26C195.306 90.94 196.106 90.46 196.789 89.82C197.493 89.1587 197.973 88.3693 198.229 87.452H200.469V100.476C200.469 101.201 200.693 101.788 201.141 102.236C201.61 102.684 202.207 102.908 202.933 102.908C203.21 102.908 203.498 102.887 203.797 102.844C204.095 102.78 204.405 102.705 204.725 102.62ZM214.586 105.5H206.394V103.74C207.012 103.591 207.46 103.367 207.738 103.068C208.015 102.769 208.154 102.311 208.154 101.692V89.052C208.154 88.4333 208.015 87.9747 207.738 87.676C207.46 87.3773 207.012 87.164 206.394 87.036V85.276L210.874 83.548H212.922V101.628C212.922 102.311 213.06 102.812 213.338 103.132C213.636 103.431 214.052 103.633 214.586 103.74V105.5ZM224.538 105.5H216.346V103.74C216.9 103.633 217.316 103.431 217.594 103.132C217.871 102.812 218.01 102.311 218.01 101.628V97.276C218.01 96.0173 217.796 95.1427 217.37 94.652C216.943 94.14 216.164 93.884 215.034 93.884C214.671 93.884 214.276 93.916 213.85 93.98C213.444 94.0227 213.039 94.1187 212.634 94.268L212.09 93.308C212.964 92.5187 213.882 91.8573 214.842 91.324C215.823 90.7907 216.868 90.524 217.978 90.524C219.45 90.524 220.612 91.036 221.466 92.06C222.34 93.084 222.778 94.5453 222.778 96.444V101.692C222.778 102.311 222.916 102.769 223.194 103.068C223.492 103.367 223.94 103.591 224.538 103.74V105.5ZM238.825 102.044L239.497 103.868C238.899 104.252 238.078 104.657 237.033 105.084C236.009 105.511 234.814 105.724 233.449 105.724C231.998 105.724 230.686 105.425 229.513 104.828C228.361 104.231 227.443 103.388 226.761 102.3C226.078 101.212 225.737 99.9213 225.737 98.428C225.737 96.9347 226.067 95.6013 226.729 94.428C227.411 93.2333 228.339 92.2947 229.513 91.612C230.686 90.908 232.019 90.556 233.513 90.556C234.963 90.556 236.169 90.908 237.129 91.612C238.11 92.2947 238.846 93.2227 239.337 94.396C239.827 95.5693 240.073 96.8813 240.073 98.332H230.409V96.284L235.625 95.996C235.625 95.4413 235.539 94.94 235.369 94.492C235.219 94.044 234.974 93.692 234.633 93.436C234.313 93.1587 233.907 93.02 233.417 93.02C232.777 93.02 232.265 93.2547 231.881 93.724C231.497 94.1933 231.219 94.7693 231.049 95.452C230.899 96.1347 230.825 96.796 230.825 97.436C230.825 98.9933 231.219 100.273 232.009 101.276C232.798 102.257 233.854 102.748 235.177 102.748C235.71 102.748 236.318 102.673 237.001 102.524C237.683 102.375 238.291 102.215 238.825 102.044ZM252.781 90.556V95.676H251.693L247.213 93.852V93.5C247.597 93.0733 248.056 92.636 248.589 92.188C249.123 91.74 249.741 91.356 250.445 91.036C251.149 90.716 251.928 90.556 252.781 90.556ZM250.029 105.5H241.741V103.74C242.36 103.591 242.808 103.367 243.085 103.068C243.363 102.769 243.501 102.311 243.501 101.692V96.188C243.501 95.5693 243.363 95.1107 243.085 94.812C242.808 94.5133 242.36 94.3 241.741 94.172V92.412L246.061 90.78H248.109V94.108H248.269V101.628C248.269 102.311 248.429 102.812 248.749 103.132C249.069 103.431 249.496 103.633 250.029 103.74V105.5ZM254.778 86.492C254.778 87.3027 255.044 87.964 255.578 88.476C256.132 88.9667 256.836 89.212 257.69 89.212L257.242 88.348C257.306 89.3933 257.135 90.3 256.73 91.068C256.324 91.8147 255.823 92.4653 255.226 93.02L256.346 94.14C257.754 93.0307 258.778 91.868 259.418 90.652C260.058 89.4147 260.378 88.2733 260.378 87.228C260.378 86.1827 260.122 85.34 259.61 84.7C259.119 84.06 258.436 83.74 257.562 83.74C256.73 83.74 256.058 83.996 255.546 84.508C255.034 85.02 254.778 85.6813 254.778 86.492ZM262.01 86.62C262.01 87.4307 262.276 88.092 262.81 88.604C263.364 89.0947 264.068 89.34 264.922 89.34L264.474 88.476C264.538 89.5213 264.367 90.428 263.962 91.196C263.556 91.9427 263.055 92.5933 262.458 93.148L263.578 94.268C264.986 93.1587 266.01 91.996 266.65 90.78C267.29 89.5427 267.61 88.4013 267.61 87.356C267.61 86.3107 267.354 85.468 266.842 84.828C266.351 84.188 265.668 83.868 264.794 83.868C263.962 83.868 263.29 84.124 262.778 84.636C262.266 85.148 262.01 85.8093 262.01 86.62Z" fill="#8B64FF" fill-opacity="0.7"/>
</svg>
