<svg width="275" height="117" viewBox="0 0 275 117" fill="none" xmlns="http://www.w3.org/2000/svg">
<path d="M40.8346 15.9522V54.0526C40.8346 54.1974 40.7771 54.3363 40.6748 54.4387C40.5724 54.5411 40.4336 54.5987 40.2889 54.5987H24.621C24.5926 54.6001 24.5646 54.5924 24.5408 54.5769C24.517 54.5614 24.4987 54.5388 24.4885 54.5123C24.4783 54.4858 24.4767 54.4568 24.484 54.4293C24.4913 54.4018 24.507 54.3774 24.529 54.3594L27.2272 51.9421C30.8399 48.7593 33.2406 44.4238 34.0217 39.6714L34.1137 39.0272C34.2928 37.7552 34.3359 36.4677 34.2425 35.1865C34.195 33.3371 33.5963 31.5441 32.5232 30.0375C31.4501 28.5309 29.9516 27.3795 28.2198 26.731C26.4881 26.0825 24.6022 25.9665 22.8041 26.3978C21.006 26.8292 19.3777 27.7883 18.1282 29.152C16.8787 30.5156 16.065 32.2218 15.7914 34.0514C15.5179 35.881 15.797 37.7507 16.5929 39.4206C17.3889 41.0904 18.6653 42.4842 20.2586 43.4231C21.8518 44.362 23.6891 44.8032 25.5347 44.6901C25.6086 44.6851 25.6827 44.6953 25.7525 44.7201C25.8223 44.745 25.8862 44.784 25.9403 44.8346C25.9943 44.8853 26.0374 44.9465 26.0668 45.0145C26.0962 45.0826 26.1113 45.1559 26.1111 45.23C26.0682 49.4634 22.4318 53.255 20.6841 54.2244C20.4326 54.3999 20.1421 54.5115 19.8378 54.5496C19.5251 54.5496 19.2246 54.5496 18.8751 54.5496C8.37052 54.6048 0 45.7024 0 34.6834C0 23.6644 8.37052 14.6209 18.8751 14.6209C25.2219 14.6209 28.656 17.1302 30.7348 20.9648C30.7478 20.9933 30.7702 21.0163 30.7983 21.0301C30.8264 21.0438 30.8584 21.0474 30.8888 21.0401C30.9192 21.0329 30.9462 21.0153 30.9651 20.9904C30.984 20.9654 30.9936 20.9347 30.9924 20.9035V15.9522C30.9924 15.8074 31.0499 15.6685 31.1522 15.5661C31.2546 15.4637 31.3934 15.4062 31.5381 15.4062H40.2889C40.4336 15.4062 40.5724 15.4637 40.6748 15.5661C40.7771 15.6685 40.8346 15.8074 40.8346 15.9522Z" fill="#B1B0DE"/>
<path d="M46.102 15.4307H54.6871C54.8498 15.4307 55.0058 15.4954 55.1208 15.6104C55.2358 15.7255 55.3004 15.8816 55.3004 16.0443V19.4923C55.3007 19.6119 55.339 19.7283 55.4098 19.8246C55.4805 19.921 55.58 19.9924 55.6939 20.0286C55.8078 20.0648 55.9302 20.0638 56.0436 20.0259C56.1569 19.9879 56.2552 19.915 56.3245 19.8175C58.4646 16.6394 61.8435 14.6209 67.4913 14.6209C77.9958 14.6209 86.3663 23.6582 86.3663 34.6834C86.3663 45.7086 78.002 54.6048 67.4974 54.6048C61.9416 54.6048 58.6118 52.6906 56.4594 49.6965C56.3931 49.5958 56.296 49.5193 56.1826 49.4784C56.0692 49.4374 55.9456 49.4344 55.8303 49.4696C55.715 49.5048 55.6142 49.5765 55.543 49.6738C55.4718 49.7711 55.434 49.8889 55.4353 50.0094V67.8019C55.4337 67.9505 55.3735 68.0925 55.2679 68.1971C55.1623 68.3016 55.0197 68.3602 54.8711 68.3602H46.102C45.9534 68.3602 45.8108 68.3016 45.7052 68.1971C45.5996 68.0925 45.5394 67.9505 45.5378 67.8019V15.9952C45.5378 15.8455 45.5973 15.7019 45.7031 15.5961C45.8089 15.4902 45.9524 15.4307 46.102 15.4307ZM65.8846 45.6288C72.2008 45.6288 76.4566 40.4138 76.4566 34.5852C76.4566 28.634 72.2008 23.5416 65.8846 23.5416C59.3477 23.5846 55.19 28.7321 55.19 34.6834C55.19 40.6347 59.3477 45.6288 65.8846 45.6288Z" fill="#B1B0DE"/>
<path d="M87.9123 34.6089C87.9123 23.5653 96.4361 14.5464 108.259 14.5464C120.082 14.5464 128.606 23.5837 128.606 34.6089C128.606 45.6341 120.082 54.6039 108.259 54.6039C96.4361 54.6039 87.9123 45.6279 87.9123 34.6089ZM108.259 45.5543C114.575 45.5543 118.684 40.5602 118.684 34.6089C118.684 28.6576 114.569 23.5653 108.259 23.5653C101.949 23.5653 97.8343 28.6392 97.8343 34.6089C97.8343 40.5786 101.943 45.5543 108.259 45.5543Z" fill="#B1B0DE"/>
<path d="M128.121 47.5181L133.965 42.1865C134.077 42.0882 134.222 42.0376 134.37 42.0456C134.518 42.0537 134.657 42.1197 134.757 42.2294C137.436 45.1069 140.276 46.5241 143.342 46.5241C146.714 46.5241 148.628 44.8369 148.628 42.5546C148.628 40.5729 147.671 39.4869 141.649 38.0758C131.439 35.6523 129.9 31.0202 129.9 26.1733C129.9 19.4857 135.186 14.5161 144.145 14.5161C150.13 14.5161 154.177 15.9702 157.967 20.6821C158.014 20.7408 158.048 20.808 158.068 20.88C158.088 20.952 158.094 21.0273 158.085 21.1015C158.076 21.1757 158.052 21.2473 158.015 21.3122C157.978 21.3772 157.928 21.4341 157.869 21.4797L151.602 26.2776C151.54 26.3237 151.47 26.3568 151.395 26.3748C151.32 26.3927 151.242 26.3952 151.167 26.382C151.091 26.3687 151.019 26.3401 150.954 26.2979C150.89 26.2557 150.835 26.2007 150.792 26.1364C149.008 23.5657 146.788 22.5289 144.366 22.5289C141.649 22.5289 139.595 23.5596 139.595 25.9094C139.595 27.2285 140.208 28.4065 144.734 29.5906C155.827 32.4558 158.396 36.5665 158.396 42.303C158.396 49.3034 152.007 54.6044 143.562 54.6044C137.301 54.6044 132.218 52.5368 128.097 48.3341C128.043 48.2797 128.001 48.2151 127.974 48.1441C127.946 48.073 127.932 47.9971 127.935 47.9208C127.937 47.8445 127.955 47.7695 127.987 47.7003C128.019 47.6311 128.065 47.5691 128.121 47.5181Z" fill="#B1B0DE"/>
<path d="M164.713 41.8117V24.4426C164.713 24.3685 164.698 24.2951 164.67 24.2266C164.641 24.1581 164.6 24.0959 164.547 24.0435C164.495 23.9911 164.433 23.9495 164.364 23.9211C164.296 23.8928 164.222 23.8782 164.148 23.8782H159.911C159.762 23.8782 159.62 23.8195 159.514 23.715C159.409 23.6105 159.348 23.4685 159.347 23.3198V15.9943C159.347 15.8446 159.406 15.701 159.512 15.5951C159.618 15.4893 159.761 15.4298 159.911 15.4298H164.148C164.297 15.4298 164.439 15.3712 164.545 15.2667C164.651 15.1621 164.711 15.0201 164.713 14.8715V8.22081C164.712 8.08182 164.763 7.94758 164.856 7.84433C164.949 7.74107 165.077 7.67624 165.215 7.66249L174.003 6.74833C174.08 6.74155 174.159 6.75092 174.232 6.77585C174.306 6.80078 174.374 6.84072 174.432 6.89317C174.489 6.94562 174.535 7.00943 174.567 7.08059C174.599 7.15175 174.616 7.22872 174.616 7.30664V14.8715C174.618 15.0201 174.678 15.1621 174.783 15.2667C174.889 15.3712 175.032 15.4298 175.18 15.4298H182.128C182.278 15.4298 182.421 15.4893 182.527 15.5951C182.633 15.701 182.692 15.8446 182.692 15.9943V23.3137C182.691 23.4623 182.631 23.6043 182.525 23.7089C182.419 23.8134 182.277 23.872 182.128 23.872H175.186C175.037 23.872 174.893 23.9315 174.787 24.0374C174.682 24.1432 174.622 24.2868 174.622 24.4365V41.2964C174.622 43.7505 175.8 44.8242 177.688 44.8242H181.245C181.393 44.8242 181.535 44.883 181.64 44.9877C181.744 45.0924 181.803 45.2344 181.803 45.3825V53.0762C181.803 53.2248 181.745 53.3675 181.64 53.4732C181.536 53.5788 181.394 53.639 181.245 53.6406H176.37C168.821 53.6406 164.713 50.1128 164.713 41.8117Z" fill="#B1B0DE"/>
<path d="M186.567 15.4308H195.067C195.216 15.4308 195.36 15.4903 195.466 15.5961C195.571 15.702 195.631 15.8455 195.631 15.9952V19.5415C195.633 19.666 195.676 19.7863 195.755 19.8832C195.833 19.9802 195.941 20.0482 196.062 20.0764C196.184 20.1046 196.311 20.0914 196.424 20.039C196.537 19.9865 196.629 19.8978 196.685 19.7869C198.494 16.2775 201.88 14.3878 206.908 14.5289C207.054 14.5337 207.193 14.5953 207.295 14.7006C207.397 14.8059 207.454 14.9468 207.454 15.0934V23.3147C207.452 23.4633 207.392 23.6053 207.286 23.7099C207.181 23.8144 207.038 23.873 206.89 23.873H206.043C200.316 23.873 195.907 27.6953 195.907 34.0883V53.0772C195.907 53.2258 195.848 53.3685 195.744 53.4741C195.639 53.5798 195.497 53.64 195.349 53.6416H186.567C186.419 53.64 186.277 53.5798 186.172 53.4741C186.068 53.3685 186.009 53.2258 186.009 53.0772V15.9952C186.009 15.8466 186.068 15.704 186.172 15.5983C186.277 15.4926 186.419 15.4324 186.567 15.4308Z" fill="#B1B0DE"/>
<path d="M227.917 0H230.756C230.906 0 231.049 0.0594687 231.155 0.165324C231.261 0.271178 231.32 0.414749 231.32 0.56445V7.89003C231.318 8.03866 231.258 8.18066 231.153 8.2852C231.047 8.38973 230.904 8.44835 230.756 8.44834H228.732C225.795 8.44834 224.397 9.99445 224.397 13.0069V14.8475C224.398 14.9961 224.459 15.1381 224.564 15.2427C224.67 15.3472 224.812 15.4058 224.961 15.4058H231.621C231.695 15.4058 231.768 15.4204 231.836 15.4488C231.905 15.4771 231.967 15.5187 232.019 15.5711C232.072 15.6235 232.113 15.6858 232.142 15.7542C232.17 15.8227 232.185 15.8961 232.185 15.9703V23.3142C232.183 23.4629 232.123 23.6049 232.017 23.7094C231.912 23.8139 231.769 23.8726 231.621 23.8726H224.979C224.83 23.8726 224.686 23.932 224.58 24.0379C224.475 24.1437 224.415 24.2873 224.415 24.437V53.0767C224.415 53.2254 224.357 53.368 224.252 53.4737C224.148 53.5794 224.006 53.6395 223.857 53.6412H215.063C214.914 53.6412 214.77 53.5817 214.665 53.4758C214.559 53.37 214.499 53.2264 214.499 53.0767V24.4431C214.499 24.2945 214.441 24.1518 214.336 24.0462C214.232 23.9405 214.09 23.8803 213.941 23.8787H209.722C209.574 23.8787 209.432 23.8199 209.328 23.7152C209.223 23.6105 209.164 23.4684 209.164 23.3204V15.9948C209.164 15.8462 209.223 15.7035 209.327 15.5978C209.432 15.4921 209.574 15.432 209.722 15.4303H213.966C214.039 15.4303 214.112 15.4159 214.179 15.3878C214.247 15.3598 214.309 15.3187 214.36 15.2668C214.412 15.215 214.453 15.1534 214.481 15.0857C214.509 15.018 214.524 14.9453 214.524 14.872V13.418C214.525 9.86298 215.936 6.4538 218.447 3.93832C220.958 1.42285 224.364 0.00649868 227.917 0Z" fill="#B1B0DE"/>
<path d="M234.865 67.7641L236.165 59.3833C236.175 59.307 236.2 59.2335 236.239 59.1672C236.278 59.101 236.33 59.0434 236.392 58.998C236.454 58.9527 236.524 58.9204 236.599 58.9033C236.674 58.8862 236.752 58.8846 236.827 58.8986C238.106 59.1656 239.409 59.2931 240.715 59.279C244.535 59.279 246.958 56.8248 248.074 53.4749L248.528 52.0515C248.571 51.9284 248.571 51.7943 248.528 51.6712L233.81 16.1906C233.775 16.1049 233.761 16.0118 233.771 15.9196C233.78 15.8274 233.812 15.7389 233.863 15.6619C233.915 15.5849 233.984 15.5217 234.066 15.478C234.148 15.4344 234.239 15.4115 234.331 15.4114H245.057C245.174 15.4113 245.289 15.448 245.384 15.5162C245.48 15.5843 245.552 15.6807 245.59 15.7918L252.881 37.2654C253.274 38.3636 253.642 39.6152 253.955 40.8668C253.984 40.9889 254.053 41.0975 254.152 41.1752C254.25 41.2529 254.372 41.2952 254.497 41.2952C254.623 41.2952 254.744 41.2529 254.843 41.1752C254.941 41.0975 255.011 40.9889 255.04 40.8668C255.334 39.6483 255.692 38.4462 256.113 37.2654L263.398 15.8224C263.437 15.7119 263.51 15.616 263.605 15.548C263.7 15.4799 263.815 15.4429 263.932 15.4421H274.436C274.529 15.4421 274.62 15.465 274.702 15.5087C274.783 15.5524 274.853 15.6155 274.905 15.6926C274.956 15.7696 274.988 15.8581 274.997 15.9503C275.006 16.0425 274.993 16.1355 274.958 16.2212L258.4 56.1009C255.101 63.8068 250.337 68.9973 241.377 68.9973C239.317 69.0263 237.259 68.8205 235.245 68.3838C235.119 68.3419 235.012 68.2567 234.942 68.1434C234.872 68.03 234.845 67.8957 234.865 67.7641Z" fill="#B1B0DE"/>
<path d="M12.3712 92.565C12.3712 91.6783 12.0795 90.9667 11.4962 90.43C10.9129 89.87 10.1429 89.59 9.18621 89.59L9.67621 90.535C9.60621 89.3683 9.79288 88.3767 10.2362 87.56C10.6795 86.7433 11.2279 86.0317 11.8812 85.425L10.6562 84.2C9.11621 85.4133 7.99621 86.6967 7.29621 88.05C6.59621 89.38 6.24621 90.6167 6.24621 91.76C6.24621 92.9033 6.51454 93.825 7.05121 94.525C7.61121 95.225 8.36954 95.575 9.32621 95.575C10.2362 95.575 10.9712 95.295 11.5312 94.735C12.0912 94.1517 12.3712 93.4283 12.3712 92.565ZM267.374 87.21C267.374 88.0967 267.666 88.82 268.249 89.38C268.856 89.9167 269.626 90.185 270.559 90.185L270.069 89.24C270.139 90.3833 269.952 91.375 269.509 92.215C269.066 93.0317 268.517 93.7433 267.864 94.35L269.089 95.575C270.629 94.3617 271.749 93.09 272.449 91.76C273.149 90.4067 273.499 89.1583 273.499 88.015C273.499 86.8717 273.219 85.95 272.659 85.25C272.122 84.55 271.376 84.2 270.419 84.2C269.509 84.2 268.774 84.48 268.214 85.04C267.654 85.6 267.374 86.3233 267.374 87.21Z" fill="#B1B0DE"/>
<path d="M23.6721 83.78C24.7921 83.78 25.7254 83.85 26.4721 83.99C27.2421 84.13 27.9421 84.3283 28.5721 84.585V88.855H26.1221C25.9588 88.1083 25.7254 87.49 25.4221 87C25.1188 86.51 24.6404 86.265 23.9871 86.265C23.4038 86.265 22.9138 86.58 22.5171 87.21C22.1438 87.8167 21.9571 88.6333 21.9571 89.66V103.73C21.9571 104.43 22.1554 104.967 22.5521 105.34C22.9721 105.69 23.5321 105.935 24.2321 106.075V108H14.8171V106.075C15.4938 105.912 15.9838 105.667 16.2871 105.34C16.5904 105.013 16.7421 104.512 16.7421 103.835V90.57C16.7421 89.0533 17.0454 87.7933 17.6521 86.79C18.2588 85.7867 19.0754 85.04 20.1021 84.55C21.1521 84.0367 22.3421 83.78 23.6721 83.78ZM19.6121 94.525V91.9H25.9121V94.525H19.6121ZM19.2971 90.885V94.525H14.1521V92.81L19.2971 90.885ZM28.6845 97.815C28.6845 97.0683 28.5212 96.555 28.1945 96.275C27.8912 95.995 27.4128 95.7733 26.7595 95.61V93.685L31.4845 91.9H33.8995V100.895C33.8995 102.248 34.1212 103.205 34.5645 103.765C35.0312 104.325 35.8595 104.605 37.0495 104.605C37.5162 104.605 37.9712 104.57 38.4145 104.5C38.8812 104.43 39.3245 104.325 39.7445 104.185L40.3745 105.2C39.4178 106.04 38.4028 106.763 37.3295 107.37C36.2795 107.977 35.1362 108.28 33.8995 108.28C32.3128 108.28 31.0412 107.72 30.0845 106.6C29.1512 105.48 28.6845 103.882 28.6845 101.805V97.815ZM39.0795 105.27V97.745C39.0795 97.0683 38.9045 96.5783 38.5545 96.275C38.2278 95.9483 37.7612 95.7267 37.1545 95.61V93.685L41.8795 91.9H44.2945V102.47C44.2945 103.17 44.4462 103.695 44.7495 104.045C45.0762 104.372 45.5662 104.605 46.2195 104.745V106.67L42.0545 108.245H41.0045L39.0795 105.27ZM59.9414 91.655V97.255H58.7514L53.8514 95.26V94.875C54.2714 94.4083 54.7731 93.93 55.3564 93.44C55.9397 92.95 56.6164 92.53 57.3864 92.18C58.1564 91.83 59.0081 91.655 59.9414 91.655ZM56.9314 108H47.8664V106.075C48.5431 105.912 49.0331 105.667 49.3364 105.34C49.6397 105.013 49.7914 104.512 49.7914 103.835V97.815C49.7914 97.1383 49.6397 96.6367 49.3364 96.31C49.0331 95.9833 48.5431 95.75 47.8664 95.61V93.685L52.5914 91.9H54.8314V95.54H55.0064V103.765C55.0064 104.512 55.1814 105.06 55.5314 105.41C55.8814 105.737 56.3481 105.958 56.9314 106.075V108ZM72.5551 94.49H64.5751V91.9H72.5551V94.49ZM72.7651 104.85L73.3601 106.635C72.7067 107.055 71.8901 107.428 70.9101 107.755C69.9534 108.082 68.9967 108.245 68.0401 108.245C66.4767 108.245 65.2284 107.778 64.2951 106.845C63.3617 105.888 62.8951 104.663 62.8951 103.17V94.49H61.4601V92.425C62.4634 92.075 63.3384 91.55 64.0851 90.85C64.8551 90.1267 65.3801 89.2633 65.6601 88.26H68.1101V102.505C68.1101 103.298 68.3551 103.94 68.8451 104.43C69.3584 104.92 70.0117 105.165 70.8051 105.165C71.1084 105.165 71.4234 105.142 71.7501 105.095C72.0767 105.025 72.4151 104.943 72.7651 104.85ZM83.5508 108H74.5908V106.075C75.2675 105.912 75.7575 105.667 76.0608 105.34C76.3642 105.013 76.5158 104.512 76.5158 103.835V90.01C76.5158 89.3333 76.3642 88.8317 76.0608 88.505C75.7575 88.1783 75.2675 87.945 74.5908 87.805V85.88L79.4908 83.99H81.7308V103.765C81.7308 104.512 81.8825 105.06 82.1858 105.41C82.5125 105.737 82.9675 105.958 83.5508 106.075V108ZM94.4358 108H85.4758V106.075C86.0825 105.958 86.5375 105.737 86.8408 105.41C87.1442 105.06 87.2958 104.512 87.2958 103.765V99.005C87.2958 97.6283 87.0625 96.6717 86.5958 96.135C86.1292 95.575 85.2775 95.295 84.0408 95.295C83.6442 95.295 83.2125 95.33 82.7458 95.4C82.3025 95.4467 81.8592 95.5517 81.4158 95.715L80.8208 94.665C81.7775 93.8017 82.7808 93.0783 83.8308 92.495C84.9042 91.9117 86.0475 91.62 87.2608 91.62C88.8708 91.62 90.1425 92.18 91.0758 93.3C92.0325 94.42 92.5108 96.0183 92.5108 98.095V103.835C92.5108 104.512 92.6625 105.013 92.9658 105.34C93.2925 105.667 93.7825 105.912 94.4358 106.075V108ZM110.062 104.22L110.797 106.215C110.144 106.635 109.246 107.078 108.102 107.545C106.982 108.012 105.676 108.245 104.182 108.245C102.596 108.245 101.161 107.918 99.8772 107.265C98.6172 106.612 97.6139 105.69 96.8672 104.5C96.1206 103.31 95.7472 101.898 95.7472 100.265C95.7472 98.6317 96.1089 97.1733 96.8322 95.89C97.5789 94.5833 98.5939 93.5567 99.8772 92.81C101.161 92.04 102.619 91.655 104.252 91.655C105.839 91.655 107.157 92.04 108.207 92.81C109.281 93.5567 110.086 94.5717 110.622 95.855C111.159 97.1383 111.427 98.5733 111.427 100.16H100.857V97.92L106.562 97.605C106.562 96.9983 106.469 96.45 106.282 95.96C106.119 95.47 105.851 95.085 105.477 94.805C105.127 94.5017 104.684 94.35 104.147 94.35C103.447 94.35 102.887 94.6067 102.467 95.12C102.047 95.6333 101.744 96.2633 101.557 97.01C101.394 97.7567 101.312 98.48 101.312 99.18C101.312 100.883 101.744 102.283 102.607 103.38C103.471 104.453 104.626 104.99 106.072 104.99C106.656 104.99 107.321 104.908 108.067 104.745C108.814 104.582 109.479 104.407 110.062 104.22ZM125.327 91.655V97.255H124.137L119.237 95.26V94.875C119.657 94.4083 120.159 93.93 120.742 93.44C121.325 92.95 122.002 92.53 122.772 92.18C123.542 91.83 124.394 91.655 125.327 91.655ZM122.317 108H113.252V106.075C113.929 105.912 114.419 105.667 114.722 105.34C115.025 105.013 115.177 104.512 115.177 103.835V97.815C115.177 97.1383 115.025 96.6367 114.722 96.31C114.419 95.9833 113.929 95.75 113.252 95.61V93.685L117.977 91.9H120.217V95.54H120.392V103.765C120.392 104.512 120.567 105.06 120.917 105.41C121.267 105.737 121.734 105.958 122.317 106.075V108ZM145.802 94.49H137.822V91.9H145.802V94.49ZM146.012 104.85L146.607 106.635C145.954 107.055 145.137 107.428 144.157 107.755C143.2 108.082 142.244 108.245 141.287 108.245C139.724 108.245 138.475 107.778 137.542 106.845C136.609 105.888 136.142 104.663 136.142 103.17V94.49H134.707V92.425C135.71 92.075 136.585 91.55 137.332 90.85C138.102 90.1267 138.627 89.2633 138.907 88.26H141.357V102.505C141.357 103.298 141.602 103.94 142.092 104.43C142.605 104.92 143.259 105.165 144.052 105.165C144.355 105.165 144.67 105.142 144.997 105.095C145.324 105.025 145.662 104.943 146.012 104.85ZM155.791 108.245C154.158 108.245 152.711 107.918 151.451 107.265C150.191 106.588 149.211 105.643 148.511 104.43C147.811 103.217 147.461 101.805 147.461 100.195C147.461 98.4217 147.858 96.905 148.651 95.645C149.444 94.3617 150.494 93.3817 151.801 92.705C153.108 92.005 154.519 91.655 156.036 91.655C157.506 91.655 158.894 91.9817 160.201 92.635C161.508 93.2883 162.558 94.2333 163.351 95.47C164.168 96.6833 164.576 98.1767 164.576 99.95C164.576 101.607 164.191 103.065 163.421 104.325C162.674 105.562 161.636 106.53 160.306 107.23C158.999 107.907 157.494 108.245 155.791 108.245ZM156.071 105.62C156.631 105.62 157.109 105.422 157.506 105.025C157.926 104.605 158.253 103.987 158.486 103.17C158.719 102.33 158.836 101.303 158.836 100.09C158.836 98.9467 158.731 97.9433 158.521 97.08C158.311 96.2167 157.996 95.54 157.576 95.05C157.156 94.56 156.619 94.315 155.966 94.315C155.406 94.315 154.904 94.525 154.461 94.945C154.041 95.365 153.714 95.9833 153.481 96.8C153.248 97.5933 153.131 98.5967 153.131 99.81C153.131 100.977 153.248 102.003 153.481 102.89C153.714 103.753 154.041 104.43 154.461 104.92C154.904 105.387 155.441 105.62 156.071 105.62ZM175.885 96.94C175.885 96.1 175.722 95.365 175.395 94.735C175.092 94.0817 174.567 93.755 173.82 93.755C173.307 93.755 172.91 93.9067 172.63 94.21C172.373 94.5133 172.187 94.8983 172.07 95.365C171.977 95.8083 171.93 96.2633 171.93 96.73C171.93 97.57 172.082 98.3167 172.385 98.97C172.688 99.6 173.213 99.915 173.96 99.915C174.497 99.915 174.905 99.7633 175.185 99.46C175.465 99.1567 175.652 98.7833 175.745 98.34C175.838 97.8733 175.885 97.4067 175.885 96.94ZM171.405 101.35C171.242 101.537 171.125 101.747 171.055 101.98C170.985 102.213 170.95 102.458 170.95 102.715C170.95 103.158 171.16 103.485 171.58 103.695C172.023 103.905 172.595 104.045 173.295 104.115C173.995 104.162 174.765 104.208 175.605 104.255C176.445 104.302 177.285 104.383 178.125 104.5C178.965 104.593 179.735 104.792 180.435 105.095C181.135 105.375 181.695 105.807 182.115 106.39C182.558 106.95 182.78 107.708 182.78 108.665C182.78 109.972 182.348 111.115 181.485 112.095C180.645 113.075 179.513 113.833 178.09 114.37C176.667 114.93 175.092 115.21 173.365 115.21C171.638 115.21 170.215 115.035 169.095 114.685C167.975 114.335 167.135 113.845 166.575 113.215C166.038 112.585 165.77 111.873 165.77 111.08C165.77 110.333 166.015 109.68 166.505 109.12C166.995 108.583 167.602 108.105 168.325 107.685C169.048 107.265 169.772 106.903 170.495 106.6L170.74 106.845C170.413 107.358 170.157 107.813 169.97 108.21C169.783 108.63 169.69 109.085 169.69 109.575C169.69 110.485 170.028 111.232 170.705 111.815C171.405 112.422 172.548 112.725 174.135 112.725C174.952 112.725 175.663 112.632 176.27 112.445C176.9 112.282 177.39 112.013 177.74 111.64C178.09 111.267 178.265 110.788 178.265 110.205C178.265 109.552 177.997 109.085 177.46 108.805C176.923 108.548 176.235 108.373 175.395 108.28C174.555 108.21 173.668 108.152 172.735 108.105C171.802 108.082 170.915 108 170.075 107.86C169.235 107.697 168.547 107.405 168.01 106.985C167.473 106.565 167.205 105.923 167.205 105.06C167.205 103.963 167.578 103.112 168.325 102.505C169.095 101.898 170.017 101.373 171.09 100.93L171.405 101.35ZM173.925 102.085C171.802 102.085 170.122 101.63 168.885 100.72C167.648 99.81 167.042 98.585 167.065 97.045C167.088 95.995 167.38 95.0733 167.94 94.28C168.523 93.4633 169.305 92.8217 170.285 92.355C171.288 91.8883 172.432 91.655 173.715 91.655C175.302 91.655 176.632 91.8767 177.705 92.32C178.778 92.7633 179.583 93.37 180.12 94.14C180.68 94.8867 180.96 95.75 180.96 96.73C180.96 97.6633 180.668 98.5383 180.085 99.355C179.525 100.172 178.72 100.837 177.67 101.35C176.62 101.84 175.372 102.085 173.925 102.085ZM183.2 91.095V94.455H182.71L179.245 94.105L178.055 93.405C178.498 93.125 179.012 92.81 179.595 92.46C180.202 92.11 180.82 91.795 181.45 91.515C182.08 91.235 182.663 91.095 183.2 91.095ZM198.553 104.22L199.288 106.215C198.635 106.635 197.737 107.078 196.593 107.545C195.473 108.012 194.167 108.245 192.673 108.245C191.087 108.245 189.652 107.918 188.368 107.265C187.108 106.612 186.105 105.69 185.358 104.5C184.612 103.31 184.238 101.898 184.238 100.265C184.238 98.6317 184.6 97.1733 185.323 95.89C186.07 94.5833 187.085 93.5567 188.368 92.81C189.652 92.04 191.11 91.655 192.743 91.655C194.33 91.655 195.648 92.04 196.698 92.81C197.772 93.5567 198.577 94.5717 199.113 95.855C199.65 97.1383 199.918 98.5733 199.918 100.16H189.348V97.92L195.053 97.605C195.053 96.9983 194.96 96.45 194.773 95.96C194.61 95.47 194.342 95.085 193.968 94.805C193.618 94.5017 193.175 94.35 192.638 94.35C191.938 94.35 191.378 94.6067 190.958 95.12C190.538 95.6333 190.235 96.2633 190.048 97.01C189.885 97.7567 189.803 98.48 189.803 99.18C189.803 100.883 190.235 102.283 191.098 103.38C191.962 104.453 193.117 104.99 194.563 104.99C195.147 104.99 195.812 104.908 196.558 104.745C197.305 104.582 197.97 104.407 198.553 104.22ZM212.418 94.49H204.438V91.9H212.418V94.49ZM212.628 104.85L213.223 106.635C212.57 107.055 211.753 107.428 210.773 107.755C209.817 108.082 208.86 108.245 207.903 108.245C206.34 108.245 205.092 107.778 204.158 106.845C203.225 105.888 202.758 104.663 202.758 103.17V94.49H201.323V92.425C202.327 92.075 203.202 91.55 203.948 90.85C204.718 90.1267 205.243 89.2633 205.523 88.26H207.973V102.505C207.973 103.298 208.218 103.94 208.708 104.43C209.222 104.92 209.875 105.165 210.668 105.165C210.972 105.165 211.287 105.142 211.613 105.095C211.94 105.025 212.278 104.943 212.628 104.85ZM223.414 108H214.454V106.075C215.131 105.912 215.621 105.667 215.924 105.34C216.227 105.013 216.379 104.512 216.379 103.835V90.01C216.379 89.3333 216.227 88.8317 215.924 88.505C215.621 88.1783 215.131 87.945 214.454 87.805V85.88L219.354 83.99H221.594V103.765C221.594 104.512 221.746 105.06 222.049 105.41C222.376 105.737 222.831 105.958 223.414 106.075V108ZM234.299 108H225.339V106.075C225.946 105.958 226.401 105.737 226.704 105.41C227.007 105.06 227.159 104.512 227.159 103.765V99.005C227.159 97.6283 226.926 96.6717 226.459 96.135C225.992 95.575 225.141 95.295 223.904 95.295C223.507 95.295 223.076 95.33 222.609 95.4C222.166 95.4467 221.722 95.5517 221.279 95.715L220.684 94.665C221.641 93.8017 222.644 93.0783 223.694 92.495C224.767 91.9117 225.911 91.62 227.124 91.62C228.734 91.62 230.006 92.18 230.939 93.3C231.896 94.42 232.374 96.0183 232.374 98.095V103.835C232.374 104.512 232.526 105.013 232.829 105.34C233.156 105.667 233.646 105.912 234.299 106.075V108ZM249.926 104.22L250.661 106.215C250.007 106.635 249.109 107.078 247.966 107.545C246.846 108.012 245.539 108.245 244.046 108.245C242.459 108.245 241.024 107.918 239.741 107.265C238.481 106.612 237.477 105.69 236.731 104.5C235.984 103.31 235.611 101.898 235.611 100.265C235.611 98.6317 235.972 97.1733 236.696 95.89C237.442 94.5833 238.457 93.5567 239.741 92.81C241.024 92.04 242.482 91.655 244.116 91.655C245.702 91.655 247.021 92.04 248.071 92.81C249.144 93.5567 249.949 94.5717 250.486 95.855C251.022 97.1383 251.291 98.5733 251.291 100.16H240.721V97.92L246.426 97.605C246.426 96.9983 246.332 96.45 246.146 95.96C245.982 95.47 245.714 95.085 245.341 94.805C244.991 94.5017 244.547 94.35 244.011 94.35C243.311 94.35 242.751 94.6067 242.331 95.12C241.911 95.6333 241.607 96.2633 241.421 97.01C241.257 97.7567 241.176 98.48 241.176 99.18C241.176 100.883 241.607 102.283 242.471 103.38C243.334 104.453 244.489 104.99 245.936 104.99C246.519 104.99 247.184 104.908 247.931 104.745C248.677 104.582 249.342 104.407 249.926 104.22ZM265.19 91.655V97.255H264L259.1 95.26V94.875C259.52 94.4083 260.022 93.93 260.605 93.44C261.189 92.95 261.865 92.53 262.635 92.18C263.405 91.83 264.257 91.655 265.19 91.655ZM262.18 108H253.115V106.075C253.792 105.912 254.282 105.667 254.585 105.34C254.889 105.013 255.04 104.512 255.04 103.835V97.815C255.04 97.1383 254.889 96.6367 254.585 96.31C254.282 95.9833 253.792 95.75 253.115 95.61V93.685L257.84 91.9H260.08V95.54H260.255V103.765C260.255 104.512 260.43 105.06 260.78 105.41C261.13 105.737 261.597 105.958 262.18 106.075V108Z" fill="white" fill-opacity="0.75"/>
</svg>
